<svg version="1.0" xmlns="http://www.w3.org/2000/svg" width="682.667" height="682.667" viewBox="0 0 512 512"><path d="M232 1c-49.1 4.7-98.1 24.7-136.5 55.7-12.9 10.4-34 32.1-43.3 44.5C24.8 137.7 7.9 179.4 1.8 225c-1.6 12.3-1.6 50.9 0 62.5 6.5 45.9 23.3 87.3 50.1 123 9.2 12.2 30.4 34.1 42.6 44 36.8 29.9 82.2 49.3 130.5 55.7 12.3 1.6 50.9 1.6 62.5 0 45.9-6.5 87.3-23.3 123-50.1 12.2-9.2 34.1-30.4 44-42.6 29.9-36.8 49.3-82.2 55.7-130.5 1.6-12.3 1.6-50.9 0-62.5-6.5-45.9-23.3-87.3-50.1-123-9.2-12.2-30.4-34.1-42.6-44C381 27.8 334.9 8.1 288 2 276.5.5 243.7-.1 232 1zm55.9 28.5c91.7 12.8 167 80.3 189.7 170.1 5.2 20.7 6.8 34 6.8 56.9 0 22.6-1.6 35-6.9 56-20.4 81-84.2 144.7-165 165-20.7 5.2-34.3 6.9-56.5 6.9-22.4 0-36.1-1.7-56.4-6.8C118.4 457 55 393.6 34.4 312.4c-5.2-20.7-6.8-34-6.8-56.9 0-22.6 1.6-35 6.9-56 22.1-87.4 94-153.8 183.3-169 22-3.7 47.7-4.1 70.1-1z"/><path d="M242.5 81.8c-15.4 5.3-19.8 10.5-35.8 41.9-13.3 26.1-16.9 31.2-25.7 36.8-6.8 4.3-11.1 5.4-37.5 9.6-13.7 2.2-26.8 4.5-29 5-19.4 5.1-33.8 27.8-30.6 48 2.1 12.8 5.2 17.3 28.1 40.4 18 18.2 21.4 22.1 24 27.8 5.6 11.9 5.7 15.7 1.1 45.1-2.3 14.2-4.1 28.8-4.1 32.5 0 12.4 4.3 22.3 13.3 30.9 11.3 10.6 26.9 14.7 40.8 10.6 3-.9 16.3-7.1 29.6-13.9 24.2-12.3 30.2-14.5 39.1-14.5 8.6.1 13.5 1.9 41.6 15.8l27.9 13.7h10.1c9.6 0 10.5-.2 17.8-3.7 10-4.8 16.8-11.4 21.3-21.1 5.3-11.1 5.4-14.9.6-45.3-4.3-27.1-4.8-33.9-3-41.3 2.4-10.4 5.6-14.7 27.9-37.6 18.5-18.9 22-22.9 24.4-28.3 9.2-20.7-.1-46-20.6-56.1-5.8-2.9-10.1-3.8-34.5-7.7-43.3-6.9-44.9-8-63.7-45.2-6.3-12.5-12.9-24.9-14.7-27.6-4.2-6.2-13.1-12.8-21.1-15.5-7.8-2.7-20.1-2.8-27.3-.3z"/></svg>