<svg aria-hidden="true" style="width:0;height:0;position:absolute;overflow:hidden" xmlns="http://www.w3.org/2000/svg"><defs><symbol id="icon-Group-61" viewBox="0 0 43 32"><path fill="#ffe553" style="fill:var(--color1,#ffe553)" d="M14.732 8.449c1.446-2.818 5.48-2.818 6.926 0a3.889 3.889 0 0 0 2.849 2.06c3.119.493 4.382 4.322 2.144 6.55a3.857 3.857 0 0 0-1.088 3.34c.494 3.117-2.785 5.468-5.601 4.043a3.931 3.931 0 0 0-3.533 0c-2.816 1.424-6.095-.927-5.601-4.043a3.863 3.863 0 0 0-1.088-3.34c-2.238-2.227-.975-6.057 2.144-6.55a3.89 3.89 0 0 0 2.849-2.06z"/><path fill="#2c2c2c" style="fill:var(--color2,#2c2c2c)" d="m2.709 20.651-.021.005c.003.074-.001.373-.012.898-.003.523-.004.866-.003 1.03 0 .157-.004.284-.01.383l.001.335c-.002.12-.008.218-.02.296l-.019.206c-.014.13-.042.2-.085.21-.092.022-.237-.049-.433-.211-.198-.17-.312-.318-.343-.445s-.038-1.058-.022-2.792c.022-1.736-.024-2.877-.139-3.425a.418.418 0 0 1 .014-.272c.036-.165.22-.32.554-.466.34-.147.848-.3 1.524-.459.683-.16 1.224-.251 1.625-.27.408-.021.627.032.657.159.02.085-.026.159-.138.223s-.212.117-.3.16l-.35.138c-.146.049-.281.096-.406.14-.126.037-.29.091-.491.16-.194.068-.374.133-.539.194-.167.054-.393.133-.676.237s-.467.169-.55.196c.012.02.023.05.033.093.079.332.122 1.127.129 2.386.446-.082.916-.204 1.411-.365.502-.163.81-.258.923-.284.27-.064.419-.039.446.074.052.219-.213.475-.797.769a8.769 8.769 0 0 1-1.963.696zM9.672 18.701a1.999 1.999 0 0 0-.279-.651c-.13-.201-.282-.333-.455-.397-.459.25-.792.727-.999 1.432-.202.696-.239 1.317-.109 1.861s.345.851.647.922c.488-.219.84-.667 1.054-1.344.22-.686.267-1.293.14-1.823zm-2.782.755c.118-.61.334-1.138.648-1.584.32-.456.689-.733 1.109-.831.427-.1.825-.004 1.195.29.368.286.614.687.737 1.203.121.509.121 1.061 0 1.656a3.773 3.773 0 0 1-.719 1.568c-.351.448-.772.73-1.263.845-.363.085-.704-.01-1.025-.285s-.542-.667-.663-1.176c-.123-.516-.129-1.077-.018-1.685zM14.505 17.565a1.999 1.999 0 0 0-.279-.651c-.13-.201-.282-.333-.455-.397-.459.25-.792.727-.999 1.432-.202.696-.239 1.317-.109 1.861s.345.851.647.922c.488-.219.84-.667 1.054-1.344.22-.686.267-1.293.14-1.823zm-2.782.755c.118-.61.334-1.138.648-1.584.32-.456.689-.733 1.109-.831.427-.1.825-.004 1.195.29.368.286.614.687.737 1.203.121.509.121 1.061 0 1.656a3.773 3.773 0 0 1-.719 1.568c-.351.448-.772.73-1.263.845-.363.085-.704-.01-1.025-.285s-.542-.667-.663-1.176c-.123-.516-.129-1.077-.018-1.685zM19.547 11.345c.114-.027.278.047.492.22.219.165.351.339.395.523s.079.727.107 1.631c.026.896.03 1.831.014 2.805-.021 2.183-.113 3.294-.277 3.332-.1.023-.224-.011-.374-.102-.144-.1-.227-.197-.249-.288s-.041-.281-.056-.569c-.529.87-1.053 1.366-1.572 1.488-.313.074-.631-.001-.954-.223-.316-.224-.51-.488-.583-.792-.104-.438-.11-.985-.019-1.64.097-.664.311-1.296.641-1.896s.748-.959 1.253-1.078c.505-.119.928.099 1.27.652.006-1.583-.076-2.813-.248-3.69-.05-.212.003-.336.159-.373zm.065 5.478c-.091-.381-.235-.687-.432-.917-.19-.231-.378-.325-.563-.282-.306.072-.574.333-.805.782s-.384.941-.46 1.473c-.071.524-.064.962.02 1.316.03.127.101.219.212.275s.23.069.358.039c.277-.065.604-.351.979-.857a3.561 3.561 0 0 0 .702-1.642l.002-.135-.013-.053zM26.421 16.184c.138.579-.009 1.128-.441 1.648a3.044 3.044 0 0 1-1.675 1.009c-.675.159-1.275.117-1.798-.125-.525-.25-.824-.53-.898-.841-.05-.212-.012-.333.116-.363.114-.027.378.09.793.351.157.09.354.163.593.219.246.054.489.053.731-.004a2.403 2.403 0 0 0 1.232-.692c.331-.346.461-.668.39-.964-.045-.191-.231-.404-.558-.641s-.677-.449-1.052-.636c-.37-.197-.719-.417-1.047-.66s-.513-.454-.555-.63c-.042-.177-.051-.372-.027-.587s.068-.378.131-.49c.205-.369.569-.749 1.091-1.14.53-.393.994-.636 1.392-.73.206-.048.396-.022.571.079s.279.225.314.374c.017.071-.044.145-.184.222s-.353.187-.642.33a5.204 5.204 0 0 0-.744.421c-.744.503-1.081.899-1.012 1.189.037.155.556.492 1.558 1.01.386.2.75.454 1.093.761.349.298.559.596.629.893zM28.87 16.716c.032.134.126.183.283.146.27-.064.58-.215.928-.453.354-.247.552-.376.595-.386.128-.03.208.022.24.156.049.205-.108.492-.471.86-.356.367-.708.591-1.056.673-.341.08-.648.055-.919-.075-.273-.137-.433-.305-.48-.503s-.064-.459-.051-.782c.011-.331.036-.765.073-1.304.042-.547.07-.997.084-1.351-.316.156-.53.248-.644.274s-.241-.003-.382-.089c-.135-.095-.215-.196-.241-.301-.04-.17.383-.441 1.271-.813a7.617 7.617 0 0 0-.179-1.603c-.05-.212-.005-.335.138-.368.121-.028.289.014.503.128.213.107.342.255.388.446s.065.54.058 1.049c.397-.131.716-.224.958-.281.427-.1.662-.059.706.125.025.106-.071.222-.289.348-.211.124-.668.347-1.372.669a47.72 47.72 0 0 1-.109 2.051c-.058.767-.068 1.228-.031 1.384zM33.639 11.165c.32-.075.654.018 1.001.279.346.254.55.512.612.774.06.254.034.537-.08.847.111.086.175.168.194.245.047.198.082.548.103 1.05.029.5.05.827.064.981a3.374 3.374 0 0 1 .05.637c.014.183-.029.287-.129.31-.128.03-.261-.054-.398-.253a3.17 3.17 0 0 1-.345-.836c-.443.947-.935 1.484-1.475 1.611-.327.077-.683.015-1.069-.185-.38-.209-.605-.462-.676-.759-.101-.424-.069-.983.096-1.678.163-.702.436-1.356.817-1.96s.793-.959 1.234-1.062zm.935 1.749c-.156-.657-.366-.954-.629-.893-.277.065-.554.339-.829.822-.277.475-.485.991-.623 1.545s-.173.977-.104 1.266c.029.12.102.207.22.262a.609.609 0 0 0 .377.023c.334-.079.658-.39.972-.933a3.813 3.813 0 0 0 .484-1.848c-.004-.111.041-.189.136-.233l-.002-.011z"/><path fill="#bbf330" style="fill:var(--color3,#bbf330)" d="M31.525 20.209a1.6 1.6 0 0 0-1.073.94 13.291 13.291 0 0 1-12.24 8.048 13.284 13.284 0 0 1-8.409-2.977 1.593 1.593 0 0 0-1.38-.331c-1.085.267-1.487 1.578-.635 2.3A16.086 16.086 0 0 0 18.213 32c6.774 0 12.57-4.161 14.944-10.053.416-1.034-.549-2.004-1.631-1.738zM4.194 13.954c.562-.138.982-.598 1.123-1.159 1.441-5.732 6.657-9.993 12.895-9.993 3.94 0 7.473 1.7 9.904 4.397.385.427.967.635 1.525.498.981-.241 1.421-1.382.759-2.145A16.095 16.095 0 0 0 18.212 0C10.564 0 4.163 5.304 2.525 12.414c-.226.98.692 1.78 1.668 1.54z"/><path fill="#bbf330" style="fill:var(--color3,#bbf330);stroke:var(--color3,#bbf330)" stroke="#bbf330" stroke-linejoin="round" stroke-width="1.031" d="M42.409 5.331c-3.803 7.241-5.473 2.465-10.826 5.271.535-8.406 6.205-3.291 10.826-5.271z"/></symbol></defs></svg>