<svg aria-hidden="true" xmlns="http://www.w3.org/2000/svg">
  <defs> 
   <symbol id="alert" viewBox="0 0 32 32">
      <path fill="none" stroke="#ff705d" style="stroke: var(--color1, #ff705d)" stroke-linejoin="round" stroke-linecap="round" stroke-miterlimit="4" stroke-width="2.2853" d="M16 11.429v6.856M16 26.285c0.017 0.001 0.036 0.001 0.055 0.001 0.632 0 1.144-0.512 1.144-1.144s-0.512-1.144-1.144-1.144c-0.019 0-0.039 0-0.058 0.001l0.003-0c-0.608 0.030-1.089 0.53-1.089 1.143s0.481 1.112 1.086 1.143l0.003 0z"></path>
      <path fill="none" stroke="#ff705d" style="stroke: var(--color1, #ff705d)" stroke-linejoin="round" stroke-linecap="round" stroke-miterlimit="4" stroke-width="2.2853" d="M18.035 2.4c-0.387-0.743-1.152-1.242-2.033-1.242s-1.646 0.499-2.027 1.23l-0.006 0.013-12.573 25.141c-0.154 0.3-0.245 0.654-0.245 1.029 0 1.26 1.020 2.282 2.279 2.285h25.144c1.259-0.004 2.278-1.026 2.278-2.285 0-0.374-0.090-0.728-0.25-1.040l0.006 0.013-12.573-25.147z"></path>
    </symbol>
  
  </defs>
</svg>