<?xml version="1.0" standalone="no"?>
<!DOCTYPE svg PUBLIC "-//W3C//DTD SVG 20010904//EN"
 "http://www.w3.org/TR/2001/REC-SVG-20010904/DTD/svg10.dtd">
<svg version="1.0" xmlns="http://www.w3.org/2000/svg"
 width="512.000000pt" height="512.000000pt" viewBox="0 0 512.000000 512.000000"
 preserveAspectRatio="xMidYMid meet">
<metadata>
Created by potrace 1.14, written by Peter Selinger 2001-2017
</metadata>
<g transform="translate(0.000000,512.000000) scale(0.100000,-0.100000)"
fill="#000000" stroke="none">
<path d="M2320 5110 c-491 -47 -981 -247 -1365 -557 -129 -104 -340 -321 -433
-445 -274 -365 -443 -782 -504 -1238 -16 -123 -16 -509 0 -625 65 -459 233
-873 501 -1230 92 -122 304 -341 426 -440 368 -299 822 -493 1305 -557 123
-16 509 -16 625 0 459 65 873 233 1230 501 122 92 341 304 440 426 299 368
493 822 557 1305 16 123 16 509 0 625 -65 459 -233 873 -501 1230 -92 122
-304 341 -426 440 -365 297 -826 494 -1295 555 -115 15 -443 21 -560 10z m559
-285 c917 -128 1670 -803 1897 -1701 52 -207 68 -340 68 -569 0 -226 -16 -350
-69 -560 -204 -810 -842 -1447 -1650 -1650 -207 -52 -343 -69 -565 -69 -224 0
-361 17 -564 68 -812 206 -1446 840 -1652 1652 -52 207 -68 340 -68 569 0 226
16 350 69 560 221 874 940 1538 1833 1690 220 37 477 41 701 10z"/>
<path d="M2425 4302 c-154 -53 -198 -105 -358 -419 -133 -261 -169 -312 -257
-368 -68 -43 -111 -54 -375 -96 -137 -22 -268 -45 -290 -50 -194 -51 -338
-278 -306 -480 21 -128 52 -173 281 -404 180 -182 214 -221 240 -278 56 -119
57 -157 11 -451 -23 -142 -41 -288 -41 -325 0 -124 43 -223 133 -309 113 -106
269 -147 408 -106 30 9 163 71 296 139 242 123 302 145 391 145 86 -1 135 -19
416 -158 l279 -137 101 0 c96 0 105 2 178 37 100 48 168 114 213 211 53 111
54 149 6 453 -43 271 -48 339 -30 413 24 104 56 147 279 376 185 189 220 229
244 283 92 207 -1 460 -206 561 -58 29 -101 38 -345 77 -433 69 -449 80 -637
452 -63 125 -129 249 -147 276 -42 62 -131 128 -211 155 -78 27 -201 28 -273
3z"/>
</g>
</svg>
