<svg aria-hidden="true" style="position: absolute; width: 0; height: 0; overflow: hidden;" version="1.1" xmlns="http://www.w3.org/2000/svg" xmlns:xlink="http://www.w3.org/1999/xlink">
<defs>
<symbol id="icon-Group-61" viewBox="0 0 43 32">
<path fill="#ffe553" style="fill: var(--color1, #ffe553)" d="M14.732 8.449c1.446-2.818 5.48-2.818 6.926 0 0.565 1.1 1.627 1.867 2.849 2.060 3.119 0.493 4.382 4.322 2.144 6.55-0.878 0.874-1.283 2.117-1.088 3.34 0.494 3.117-2.785 5.468-5.601 4.043-1.105-0.559-2.428-0.559-3.533 0-2.816 1.424-6.095-0.927-5.601-4.043 0.194-1.223-0.211-2.466-1.088-3.34-2.238-2.227-0.975-6.057 2.144-6.55 1.221-0.193 2.284-0.96 2.849-2.060z"></path>
<path fill="#2c2c2c" style="fill: var(--color2, #2c2c2c)" d="M2.709 20.651l-0.021 0.005c0.003 0.074-0.001 0.373-0.012 0.898-0.003 0.523-0.004 0.866-0.003 1.030-0 0.157-0.004 0.284-0.010 0.383 0.001 0.097 0.001 0.209 0.001 0.335-0.002 0.12-0.008 0.218-0.020 0.296-0.006 0.069-0.012 0.137-0.019 0.206-0.014 0.13-0.042 0.2-0.085 0.21-0.092 0.022-0.237-0.049-0.433-0.211-0.198-0.17-0.312-0.318-0.343-0.445s-0.038-1.058-0.022-2.792c0.022-1.736-0.024-2.877-0.139-3.425-0.025-0.106-0.020-0.197 0.014-0.272 0.036-0.165 0.22-0.32 0.554-0.466 0.34-0.147 0.848-0.3 1.524-0.459 0.683-0.16 1.224-0.251 1.625-0.27 0.408-0.021 0.627 0.032 0.657 0.159 0.020 0.085-0.026 0.159-0.138 0.223s-0.212 0.117-0.3 0.16c-0.089 0.036-0.206 0.082-0.35 0.138-0.146 0.049-0.281 0.096-0.406 0.14-0.126 0.037-0.29 0.091-0.491 0.16-0.194 0.068-0.374 0.133-0.539 0.194-0.167 0.054-0.393 0.133-0.676 0.237s-0.467 0.169-0.55 0.196c0.012 0.020 0.023 0.050 0.033 0.093 0.079 0.332 0.122 1.127 0.129 2.386 0.446-0.082 0.916-0.204 1.411-0.365 0.502-0.163 0.81-0.258 0.923-0.284 0.27-0.064 0.419-0.039 0.446 0.074 0.052 0.219-0.213 0.475-0.797 0.769-0.576 0.292-1.231 0.524-1.963 0.696z"></path>
<path fill="#2c2c2c" style="fill: var(--color2, #2c2c2c)" d="M9.672 18.701c-0.057-0.24-0.15-0.457-0.279-0.651-0.13-0.201-0.282-0.333-0.455-0.397-0.459 0.25-0.792 0.727-0.999 1.432-0.202 0.696-0.239 1.317-0.109 1.861s0.345 0.851 0.647 0.922c0.488-0.219 0.84-0.667 1.054-1.344 0.22-0.686 0.267-1.293 0.14-1.823zM6.89 19.456c0.118-0.61 0.334-1.138 0.648-1.584 0.32-0.456 0.689-0.733 1.109-0.831 0.427-0.1 0.825-0.004 1.195 0.29 0.368 0.286 0.614 0.687 0.737 1.203 0.121 0.509 0.121 1.061-0 1.656-0.123 0.588-0.363 1.111-0.719 1.568-0.351 0.448-0.772 0.73-1.263 0.845-0.363 0.085-0.704-0.010-1.025-0.285s-0.542-0.667-0.663-1.176c-0.123-0.516-0.129-1.077-0.018-1.685z"></path>
<path fill="#2c2c2c" style="fill: var(--color2, #2c2c2c)" d="M14.505 17.565c-0.057-0.24-0.15-0.457-0.279-0.651-0.13-0.201-0.282-0.333-0.455-0.397-0.459 0.25-0.792 0.727-0.999 1.432-0.202 0.696-0.239 1.317-0.109 1.861s0.345 0.851 0.647 0.922c0.488-0.219 0.84-0.667 1.054-1.344 0.22-0.686 0.267-1.293 0.14-1.823zM11.723 18.32c0.118-0.61 0.334-1.138 0.648-1.584 0.32-0.456 0.689-0.733 1.109-0.831 0.427-0.1 0.825-0.004 1.195 0.29 0.368 0.286 0.614 0.687 0.737 1.203 0.121 0.509 0.121 1.061-0 1.656-0.123 0.588-0.363 1.111-0.719 1.568-0.351 0.448-0.772 0.73-1.263 0.845-0.363 0.085-0.704-0.010-1.025-0.285s-0.542-0.667-0.663-1.176c-0.123-0.516-0.129-1.077-0.018-1.685z"></path>
<path fill="#2c2c2c" style="fill: var(--color2, #2c2c2c)" d="M19.547 11.345c0.114-0.027 0.278 0.047 0.492 0.22 0.219 0.165 0.351 0.339 0.395 0.523s0.079 0.727 0.107 1.631c0.026 0.896 0.030 1.831 0.014 2.805-0.021 2.183-0.113 3.294-0.277 3.332-0.1 0.023-0.224-0.011-0.374-0.102-0.144-0.1-0.227-0.197-0.249-0.288s-0.041-0.281-0.056-0.569c-0.529 0.87-1.053 1.366-1.572 1.488-0.313 0.074-0.631-0.001-0.954-0.223-0.316-0.224-0.51-0.488-0.583-0.792-0.104-0.438-0.11-0.985-0.019-1.64 0.097-0.664 0.311-1.296 0.641-1.896s0.748-0.959 1.253-1.078c0.505-0.119 0.928 0.099 1.27 0.652 0.006-1.583-0.076-2.813-0.248-3.69-0.050-0.212 0.003-0.336 0.159-0.373zM19.612 16.823c-0.091-0.381-0.235-0.687-0.432-0.917-0.19-0.231-0.378-0.325-0.563-0.282-0.306 0.072-0.574 0.333-0.805 0.782s-0.384 0.941-0.46 1.473c-0.071 0.524-0.064 0.962 0.020 1.316 0.030 0.127 0.101 0.219 0.212 0.275s0.23 0.069 0.358 0.039c0.277-0.065 0.604-0.351 0.979-0.857 0.382-0.508 0.616-1.055 0.702-1.642l0.002-0.135-0.013-0.053z"></path>
<path fill="#2c2c2c" style="fill: var(--color2, #2c2c2c)" d="M26.421 16.184c0.138 0.579-0.009 1.128-0.441 1.648-0.434 0.512-0.992 0.849-1.675 1.009-0.675 0.159-1.275 0.117-1.798-0.125-0.525-0.25-0.824-0.53-0.898-0.841-0.050-0.212-0.012-0.333 0.116-0.363 0.114-0.027 0.378 0.090 0.793 0.351 0.157 0.090 0.354 0.163 0.593 0.219 0.246 0.054 0.489 0.053 0.731-0.004 0.498-0.117 0.908-0.348 1.232-0.692 0.331-0.346 0.461-0.668 0.39-0.964-0.045-0.191-0.231-0.404-0.558-0.641s-0.677-0.449-1.052-0.636c-0.37-0.197-0.719-0.417-1.047-0.66s-0.513-0.454-0.555-0.63c-0.042-0.177-0.051-0.372-0.027-0.587s0.068-0.378 0.131-0.49c0.205-0.369 0.569-0.749 1.091-1.14 0.53-0.393 0.994-0.636 1.392-0.73 0.206-0.048 0.396-0.022 0.571 0.079s0.279 0.225 0.314 0.374c0.017 0.071-0.044 0.145-0.184 0.222s-0.353 0.187-0.642 0.33c-0.284 0.134-0.532 0.274-0.744 0.421-0.744 0.503-1.081 0.899-1.012 1.189 0.037 0.155 0.556 0.492 1.558 1.010 0.386 0.2 0.75 0.454 1.093 0.761 0.349 0.298 0.559 0.596 0.629 0.893z"></path>
<path fill="#2c2c2c" style="fill: var(--color2, #2c2c2c)" d="M28.87 16.716c0.032 0.134 0.126 0.183 0.283 0.146 0.27-0.064 0.58-0.215 0.928-0.453 0.354-0.247 0.552-0.376 0.595-0.386 0.128-0.030 0.208 0.022 0.24 0.156 0.049 0.205-0.108 0.492-0.471 0.86-0.356 0.367-0.708 0.591-1.056 0.673-0.341 0.080-0.648 0.055-0.919-0.075-0.273-0.137-0.433-0.305-0.48-0.503s-0.064-0.459-0.051-0.782c0.011-0.331 0.036-0.765 0.073-1.304 0.042-0.547 0.070-0.997 0.084-1.351-0.316 0.156-0.53 0.248-0.644 0.274s-0.241-0.003-0.382-0.089c-0.135-0.095-0.215-0.196-0.241-0.301-0.040-0.17 0.383-0.441 1.271-0.813-0.012-0.616-0.071-1.151-0.179-1.603-0.050-0.212-0.005-0.335 0.138-0.368 0.121-0.028 0.289 0.014 0.503 0.128 0.213 0.107 0.342 0.255 0.388 0.446s0.065 0.54 0.058 1.049c0.397-0.131 0.716-0.224 0.958-0.281 0.427-0.1 0.662-0.059 0.706 0.125 0.025 0.106-0.071 0.222-0.289 0.348-0.211 0.124-0.668 0.347-1.372 0.669-0.017 0.593-0.053 1.277-0.109 2.051-0.058 0.767-0.068 1.228-0.031 1.384z"></path>
<path fill="#2c2c2c" style="fill: var(--color2, #2c2c2c)" d="M33.639 11.165c0.32-0.075 0.654 0.018 1.001 0.279 0.346 0.254 0.55 0.512 0.612 0.774 0.060 0.254 0.034 0.537-0.080 0.847 0.111 0.086 0.175 0.168 0.194 0.245 0.047 0.198 0.082 0.548 0.103 1.050 0.029 0.5 0.050 0.827 0.064 0.981 0.021 0.152 0.035 0.275 0.043 0.37 0.006 0.088 0.008 0.177 0.007 0.267 0.014 0.183-0.029 0.287-0.129 0.31-0.128 0.030-0.261-0.054-0.398-0.253-0.132-0.208-0.247-0.486-0.345-0.836-0.443 0.947-0.935 1.484-1.475 1.611-0.327 0.077-0.683 0.015-1.069-0.185-0.38-0.209-0.605-0.462-0.676-0.759-0.101-0.424-0.069-0.983 0.096-1.678 0.163-0.702 0.436-1.356 0.817-1.96s0.793-0.959 1.234-1.062zM34.574 12.914c-0.156-0.657-0.366-0.954-0.629-0.893-0.277 0.065-0.554 0.339-0.829 0.822-0.277 0.475-0.485 0.991-0.623 1.545s-0.173 0.977-0.104 1.266c0.029 0.12 0.102 0.207 0.22 0.262 0.116 0.047 0.242 0.055 0.377 0.023 0.334-0.079 0.658-0.39 0.972-0.933 0.312-0.551 0.473-1.167 0.484-1.848-0.004-0.111 0.041-0.189 0.136-0.233l-0.002-0.011z"></path>
<path fill="#bbf330" style="fill: var(--color3, #bbf330)" d="M31.525 20.209c-0.487 0.12-0.876 0.479-1.073 0.94-2.018 4.725-6.731 8.048-12.24 8.048-3.194 0-6.121-1.117-8.409-2.977-0.387-0.315-0.896-0.45-1.38-0.331-1.085 0.267-1.487 1.578-0.635 2.3 2.808 2.376 6.448 3.811 10.425 3.811 6.774 0 12.57-4.161 14.944-10.053 0.416-1.034-0.549-2.004-1.631-1.738zM4.194 13.954c0.562-0.138 0.982-0.598 1.123-1.159 1.441-5.732 6.657-9.993 12.895-9.993 3.94 0 7.473 1.7 9.904 4.397 0.385 0.427 0.967 0.635 1.525 0.498 0.981-0.241 1.421-1.382 0.759-2.145-2.951-3.4-7.317-5.552-12.188-5.552-7.648 0-14.049 5.304-15.687 12.414-0.226 0.98 0.692 1.78 1.668 1.54z"></path>
<path fill="#bbf330" style="fill: var(--color3, #bbf330); stroke: var(--color3, #bbf330)" stroke="#bbf330" stroke-linejoin="round" stroke-linecap="butt" stroke-miterlimit="4" stroke-width="1.0308" d="M42.409 5.331c-3.803 7.241-5.473 2.465-10.826 5.271 0.535-8.406 6.205-3.291 10.826-5.271z"></path>
</symbol>
</defs>
</svg>
